<svg id="Rebel_Lion_Marque" data-name="Rebel Lion Marque" xmlns="http://www.w3.org/2000/svg" viewBox="0 0 255.12 273.21"><defs><style>.cls-1{fill:#fffbe6;}</style></defs><path id="Head" class="cls-1" d="M84.19,273.2h86.86l30.38-17.37,53.69-71.65V134.78L243.42,99.5H191.31l5.79,17.37h-139L63.93,99.5H11.82L0,134.78v49.41L53.89,256Zm78.09-144L145,151.61v34.74H110.25V151.61L92.88,129.18ZM119.9,221.1l-9.65,17.37H92.88L40.77,169l11.58-34.74,40.53,17.37v34.74l27,17.38Zm42.46,17.37H145l-9.65-17.37V203.73l27-17.38V151.61l40.53-17.37L214.47,169Z"/><polygon id="Baret" class="cls-1" points="225.97 28.96 66.71 0 27.88 18.05 11.82 46.41 11.87 82.13 58.47 82.13 61.52 72.86 38.88 56.43 66.75 56.55 75.51 30.02 84.15 56.55 112.14 56.67 89.38 72.98 92.41 82.13 243.42 82.13 243.42 46.41 225.97 28.96"/></svg>